<svg width="40" height="41" viewBox="0 0 40 41" fill="none" xmlns="http://www.w3.org/2000/svg">
<circle cx="6.09137" cy="6.09137" r="6.09137" fill="white"/>
<circle cx="33.9086" cy="6.09137" r="6.09137" fill="#EB4781"/>
<path fill-rule="evenodd" clip-rule="evenodd" d="M34.0101 13.198C36.6642 13.198 38.9524 11.6311 40 9.37193V20.6091C40 31.6548 31.0457 40.6092 20 40.6092C8.95431 40.6092 0 31.6548 0 20.6092V9.21344C1.07113 11.564 3.4412 13.198 6.1929 13.198C8.94458 13.198 11.3146 11.5641 12.3858 9.21349V21.0152C12.3858 25.3326 15.8857 28.8325 20.203 28.8325C24.5204 28.8325 28.0203 25.3326 28.0203 21.0152V9.37193C29.0679 11.6311 31.356 13.198 34.0101 13.198Z" fill="white"/>
<path fill-rule="evenodd" clip-rule="evenodd" d="M8.83313 37.2038C12.0221 39.354 15.8645 40.6092 20 40.6092C31.0457 40.6092 40 31.6548 40 20.6091V9.37194C38.9523 11.6311 36.6642 13.198 34.0101 13.198C31.356 13.198 29.0679 11.6311 28.0203 9.37193V21.0152C28.0203 21.6727 27.9391 22.3112 27.7862 22.9213C27.2744 31.0936 20.4841 37.5635 12.1827 37.5635C11.033 37.5635 9.91223 37.4394 8.83313 37.2038Z" fill="#EB4781"/>
</svg>
