<svg width="36" height="36" viewBox="0 0 36 36" fill="none" xmlns="http://www.w3.org/2000/svg">
<rect x="0.5" y="0.5" width="35" height="35" rx="2.5" fill="#2EB2AA" stroke="#2EB2AA"/>
<path fill-rule="evenodd" clip-rule="evenodd" d="M13.5 23.25C13.5 23.0511 13.579 22.8603 13.7197 22.7197C13.8603 22.579 14.0511 22.5 14.25 22.5H27.75C27.9489 22.5 28.1397 22.579 28.2803 22.7197C28.421 22.8603 28.5 23.0511 28.5 23.25C28.5 23.4489 28.421 23.6397 28.2803 23.7803C28.1397 23.921 27.9489 24 27.75 24H14.25C14.0511 24 13.8603 23.921 13.7197 23.7803C13.579 23.6397 13.5 23.4489 13.5 23.25ZM13.5 17.25C13.5 17.0511 13.579 16.8603 13.7197 16.7197C13.8603 16.579 14.0511 16.5 14.25 16.5H27.75C27.9489 16.5 28.1397 16.579 28.2803 16.7197C28.421 16.8603 28.5 17.0511 28.5 17.25C28.5 17.4489 28.421 17.6397 28.2803 17.7803C28.1397 17.921 27.9489 18 27.75 18H14.25C14.0511 18 13.8603 17.921 13.7197 17.7803C13.579 17.6397 13.5 17.4489 13.5 17.25ZM13.5 11.25C13.5 11.0511 13.579 10.8603 13.7197 10.7197C13.8603 10.579 14.0511 10.5 14.25 10.5H27.75C27.9489 10.5 28.1397 10.579 28.2803 10.7197C28.421 10.8603 28.5 11.0511 28.5 11.25C28.5 11.4489 28.421 11.6397 28.2803 11.7803C28.1397 11.921 27.9489 12 27.75 12H14.25C14.0511 12 13.8603 11.921 13.7197 11.7803C13.579 11.6397 13.5 11.4489 13.5 11.25ZM9 12.75C9.39782 12.75 9.77936 12.592 10.0607 12.3107C10.342 12.0294 10.5 11.6478 10.5 11.25C10.5 10.8522 10.342 10.4706 10.0607 10.1893C9.77936 9.90804 9.39782 9.75 9 9.75C8.60218 9.75 8.22064 9.90804 7.93934 10.1893C7.65804 10.4706 7.5 10.8522 7.5 11.25C7.5 11.6478 7.65804 12.0294 7.93934 12.3107C8.22064 12.592 8.60218 12.75 9 12.75ZM9 18.75C9.39782 18.75 9.77936 18.592 10.0607 18.3107C10.342 18.0294 10.5 17.6478 10.5 17.25C10.5 16.8522 10.342 16.4706 10.0607 16.1893C9.77936 15.908 9.39782 15.75 9 15.75C8.60218 15.75 8.22064 15.908 7.93934 16.1893C7.65804 16.4706 7.5 16.8522 7.5 17.25C7.5 17.6478 7.65804 18.0294 7.93934 18.3107C8.22064 18.592 8.60218 18.75 9 18.75ZM9 24.75C9.39782 24.75 9.77936 24.592 10.0607 24.3107C10.342 24.0294 10.5 23.6478 10.5 23.25C10.5 22.8522 10.342 22.4706 10.0607 22.1893C9.77936 21.908 9.39782 21.75 9 21.75C8.60218 21.75 8.22064 21.908 7.93934 22.1893C7.65804 22.4706 7.5 22.8522 7.5 23.25C7.5 23.6478 7.65804 24.0294 7.93934 24.3107C8.22064 24.592 8.60218 24.75 9 24.75Z" fill="white"/>
</svg>
