<svg width="36" height="36" viewBox="0 0 36 36" fill="none" xmlns="http://www.w3.org/2000/svg">
<rect x="0.5" y="0.5" width="35" height="35" rx="2.5" fill="#2EB2AA" stroke="#2EB2AA"/>
<path d="M7.5 9.75C7.5 9.15326 7.73705 8.58097 8.15901 8.15901C8.58097 7.73705 9.15326 7.5 9.75 7.5H14.25C14.8467 7.5 15.419 7.73705 15.841 8.15901C16.2629 8.58097 16.5 9.15326 16.5 9.75V14.25C16.5 14.8467 16.2629 15.419 15.841 15.841C15.419 16.2629 14.8467 16.5 14.25 16.5H9.75C9.15326 16.5 8.58097 16.2629 8.15901 15.841C7.73705 15.419 7.5 14.8467 7.5 14.25V9.75ZM19.5 9.75C19.5 9.15326 19.7371 8.58097 20.159 8.15901C20.581 7.73705 21.1533 7.5 21.75 7.5H26.25C26.8467 7.5 27.419 7.73705 27.841 8.15901C28.2629 8.58097 28.5 9.15326 28.5 9.75V14.25C28.5 14.8467 28.2629 15.419 27.841 15.841C27.419 16.2629 26.8467 16.5 26.25 16.5H21.75C21.1533 16.5 20.581 16.2629 20.159 15.841C19.7371 15.419 19.5 14.8467 19.5 14.25V9.75ZM7.5 21.75C7.5 21.1533 7.73705 20.581 8.15901 20.159C8.58097 19.7371 9.15326 19.5 9.75 19.5H14.25C14.8467 19.5 15.419 19.7371 15.841 20.159C16.2629 20.581 16.5 21.1533 16.5 21.75V26.25C16.5 26.8467 16.2629 27.419 15.841 27.841C15.419 28.2629 14.8467 28.5 14.25 28.5H9.75C9.15326 28.5 8.58097 28.2629 8.15901 27.841C7.73705 27.419 7.5 26.8467 7.5 26.25V21.75ZM19.5 21.75C19.5 21.1533 19.7371 20.581 20.159 20.159C20.581 19.7371 21.1533 19.5 21.75 19.5H26.25C26.8467 19.5 27.419 19.7371 27.841 20.159C28.2629 20.581 28.5 21.1533 28.5 21.75V26.25C28.5 26.8467 28.2629 27.419 27.841 27.841C27.419 28.2629 26.8467 28.5 26.25 28.5H21.75C21.1533 28.5 20.581 28.2629 20.159 27.841C19.7371 27.419 19.5 26.8467 19.5 26.25V21.75Z" fill="white"/>
</svg>
