<!-- Generated by IcoMoon.io -->
<svg version="1.1" xmlns="http://www.w3.org/2000/svg" width="768" height="768" viewBox="0 0 768 768">
<title></title>
<g id="icomoon-ignore">
</g>
<path fill="#000" d="M635.040 128l-211.488 250.048c-4.704 5.536-7.552 12.768-7.552 20.672v221.504l-64-32v-189.504c0.032-7.264-2.464-14.624-7.552-20.672l-211.488-250.048zM704 64h-640c-17.664 0-32 14.336-32 32 0 7.904 2.848 15.136 7.552 20.672l248.448 293.76v197.568c0 12.448 7.104 23.264 17.696 28.608l128 64c15.808 7.904 35.040 1.504 42.944-14.304 2.304-4.672 3.392-9.632 3.36-14.304v-261.568l248.448-293.76c11.424-13.504 9.728-33.696-3.776-45.088-6.048-5.12-13.408-7.616-20.672-7.584z"></path>
</svg>
